<svg id="Layer_1" data-name="Layer 1" xmlns="http://www.w3.org/2000/svg" viewBox="0 0 500 500">
    <defs>
        <style>.cls-1{fill:#49705b;}.cls-2{fill:#fff;}.cls-3,.cls-4{fill:#f6f6f6;}.cls-4{font-size:82.34px;font-family:MyriadPro-Regular,
            Myriad Pro;}.cls-5{letter-spacing:-0.01em;}</style>
    </defs>
    <path class="cls-1"
        d="M467.09,352.23a239.93,239.93,0,0,0,23.77-104.45C490.86,114.76,383,6.92,250,6.92S9.14,114.76,9.14,247.78,117,488.64,250,488.64a240,240,0,0,0,100.83-22.08H467.09Z" />
    <path class="cls-2"
        d="M458.91,348.29a230.78,230.78,0,0,0,22.87-100.51C481.78,119.77,378,16,250,16S18.22,119.77,18.22,247.78,122,479.56,250,479.56a230.84,230.84,0,0,0,97-21.24H458.91Z" />
    <path class="cls-1"
        d="M441.17,339.76a211.15,211.15,0,0,0,20.93-92c0-117.14-95-212.1-212.1-212.1s-212.1,95-212.1,212.1,95,212.1,212.1,212.1a211.26,211.26,0,0,0,88.79-19.44H441.17Z" />
    <circle class="cls-3" cx="251.15" cy="124.57" r="37.14" />
    <path class="cls-3"
        d="M285.15,277.5H331L289.66,168.82H210.34L169,277.5h45.89l10.37-27.21h49.56ZM237.53,218,250,185.2,262.47,218Z" />
    <text class="cls-4" transform="translate(114.89 357.98)">
        <tspan class="cls-5">A</tspan>
        <tspan x="49.9" y="0">ssistini</tspan>
    </text>
</svg>